{"title":"Natural.Killers.-.Swamp.Tigers.[Norwegian].DvdRip.XviD-KnÃƒÂ£","uid":6644061,"size":939816988,"categoryP":"video","categoryS":"movies","magnet":"?xt=urn:btih:ac0cbd5e4417c6d5716716edcd7e54764d963692&amp;dn=Natural.Killers.-.Swamp.Tigers.%5BNorwegian%5D.DvdRip.XviD-Kn%C3%83%C2%A3&amp;tr=udp%3A%2F%2Ftracker.openbittorrent.com%3A80&amp;tr=udp%3A%2F%2Fopen.demonii.com%3A1337&amp;tr=udp%3A%2F%2Ftracker.coppersurfer.tk%3A6969&amp;tr=udp%3A%2F%2Fexodus.desync.com%3A6969","seeders":0,"leechers":1,"uploader":"Jon.Pson","files":3,"time":1314877042,"description":"Swamp Tigers\n\nThis enthralling film brings you face to face with the beautiful, yet terrifying, man-eating tigers that stalk the mangrove swamps of the Bay of Bengal, striking fear into the heart of every living being!\n\nMarvel at the skill and courage of cameraman Mike Herd in his amazing quest to capture these elusive creatures on film for the very first time.\n\nThis extraordinary footage gives a fascinating glimpse into the private lives of two tiger families - bringing you so close you'll hardly dare breathe!\n\n\n\nGeneral\nComplete name                    : Z:\\Unsorted\\Natural.Killers.-.Swamp.Tigers.[Norwegian].DvdRip.XviD-KnÃƒÂ£\\Natural.Killers.-.Swamp.Tigers.[2001].Norwegian.DvdRip.XviD-KnÃƒÂ£.avi\nFormat                           : AVI\nFormat/Info                      : Audio Video Interleave\nFile size                        : 896 MiB\nDuration                         : 50mn 3s\nOverall bit rate                 : 2 504 Kbps\nWriting application              : VirtualDubMod 1.5.4.1 (build 2178/release)\nWriting library                  : VirtualDubMod build 2178/release\n\nVideo\nID                               : 0\nFormat                           : MPEG-4 Visual\nFormat profile                   : Advanced Simple@L5\nFormat settings, BVOP            : 1\nFormat settings, QPel            : No\nFormat settings, GMC             : No warppoints\nFormat settings, Matrix          : Custom\nCodec ID                         : XVID\nCodec ID/Hint                    : XviD\nDuration                         : 50mn 3s\nBit rate                         : 2 305 Kbps\nWidth                            : 640 pixels\nHeight                           : 368 pixels\nDisplay aspect ratio             : 16:9\nFrame rate                       : 25.000 fps\nColor space                      : YUV\nChroma subsampling               : 4:2:0\nBit depth                        : 8 bits\nScan type                        : Progressive\nCompression mode                 : Lossy\nBits/(Pixel*Frame)               : 0.391\nStream size                      : 825 MiB (92%)\nWriting library                  : XviD 1.2.1 (UTC 2008-12-04)\n\nAudio\nID                               : 1\nFormat                           : AC-3\nFormat/Info                      : Audio Coding 3\nMode extension                   : CM (complete main)\nCodec ID                         : 2000\nDuration                         : 50mn 2s\nBit rate mode                    : Constant\nBit rate                         : 192 Kbps\nChannel(s)                       : 2 channels\nChannel positions                : Front: L R\nSampling rate                    : 48.0 KHz\nBit depth                        : 16 bits\nCompression mode                 : Lossy\nStream size                      : 68.7 MiB (8%)\nAlignment                        : Split accross interleaves\nInterleave, duration             : 96 ms (2.40 video frames)\nInterleave, preload duration     : 96 ms\nLanguage                         : Norwegian\n\n","torrent":{"xt":"urn:btih:ac0cbd5e4417c6d5716716edcd7e54764d963692","amp;dn":"Natural.Killers.-.Swamp.Tigers.%5BNorwegian%5D.DvdRip.XviD-Kn%C3%83%C2%A3","amp;tr":["udp%3A%2F%2Ftracker.openbittorrent.com%3A80","udp%3A%2F%2Fopen.demonii.com%3A1337","udp%3A%2F%2Ftracker.coppersurfer.tk%3A6969","udp%3A%2F%2Fexodus.desync.com%3A6969"],"infoHash":"ac0cbd5e4417c6d5716716edcd7e54764d963692","infoHashBuffer":{"type":"Buffer","data":[172,12,189,94,68,23,198,213,113,103,22,237,205,126,84,118,77,150,54,146]},"announce":[],"urlList":[]}}